<?xml version="1.0" standalone="no"?>
<!DOCTYPE svg PUBLIC "-//W3C//DTD SVG 20010904//EN"
 "http://www.w3.org/TR/2001/REC-SVG-20010904/DTD/svg10.dtd">
<svg version="1.0" xmlns="http://www.w3.org/2000/svg"
 width="1280.000000pt" height="1024.000000pt" viewBox="0 0 1280.000000 1024.000000"
 preserveAspectRatio="xMidYMid meet">

<g transform="translate(0.000000,1024.000000) scale(0.100000,-0.100000)"
fill="#000000" stroke="none">
<path d="M10880 9661 c-371 -126 -2409 -958 -3209 -1310 -101 -45 -197 -81
-212 -81 -15 0 -69 9 -121 19 -588 121 -1315 139 -1935 46 -90 -13 -202 -33
-249 -45 -124 -29 -158 -27 -266 21 -226 99 -1056 439 -2138 874 -1197 482
-1231 494 -1354 481 -181 -18 -314 -164 -324 -354 -7 -128 29 -212 171 -400
41 -53 132 -182 204 -287 942 -1373 1452 -2122 1489 -2184 188 -325 232 -742
114 -1086 -28 -82 -72 -145 -171 -244 -94 -93 -173 -151 -247 -180 -134 -53
-388 -74 -571 -47 -138 21 -224 47 -412 127 -125 54 -153 62 -209 63 -202 2
-330 -211 -241 -401 16 -34 211 -378 432 -765 221 -387 410 -716 418 -733 14
-26 17 -98 21 -490 3 -253 9 -469 14 -480 35 -76 110 -168 238 -292 78 -76
237 -231 353 -344 125 -122 228 -215 254 -229 53 -27 141 -36 196 -21 62 16
131 65 171 121 23 32 43 50 56 50 12 0 75 -27 142 -60 72 -36 161 -71 221 -87
90 -24 117 -26 280 -27 164 0 189 3 280 27 55 15 147 50 205 78 93 45 109 49
134 39 l28 -10 -8 -118 c-15 -215 0 -308 71 -427 46 -76 84 -116 160 -165 69
-45 115 -54 330 -71 362 -27 2365 -18 2467 11 53 15 118 68 153 125 l30 48 3
231 c4 289 4 289 129 242 36 -13 134 -16 755 -16 510 -1 722 2 743 10 85 32
1342 679 1376 708 22 19 50 53 62 76 21 40 22 49 22 386 0 339 0 346 -22 387
-28 52 -28 68 -4 124 37 83 42 157 34 465 l-8 291 -32 63 c-18 34 -33 67 -33
72 0 6 24 47 54 91 30 45 71 116 91 157 21 41 77 145 125 230 156 277 154 273
155 370 0 96 -16 140 -72 196 -57 58 -88 69 -188 69 l-90 0 -145 -69 c-80 -37
-167 -77 -193 -87 -114 -45 -340 -61 -542 -39 -222 25 -341 94 -490 285 -110
141 -161 246 -195 405 -64 289 -17 612 128 894 34 67 1377 2050 1776 2623 93
135 110 180 111 298 0 88 -3 107 -26 156 -51 108 -147 183 -267 208 -82 17
-130 13 -222 -18z m134 -346 c0 -11 -503 -757 -1117 -1658 -614 -901 -1117
-1641 -1117 -1645 0 -4 70 -202 155 -440 85 -239 155 -439 155 -446 0 -7 -110
-50 -257 -101 -142 -49 -298 -102 -347 -119 -81 -28 -120 -55 -104 -71 3 -3
57 -12 119 -20 201 -26 329 -47 329 -54 0 -4 -71 -41 -157 -83 -87 -42 -603
-293 -1148 -558 -1338 -652 -1313 -640 -1328 -640 -7 0 -186 85 -397 189 -212
103 -599 292 -860 418 -690 335 -1364 664 -1369 669 -14 13 41 24 268 54 85
11 158 23 163 28 5 5 0 15 -9 24 -20 17 -77 38 -433 160 -177 60 -246 88 -248
100 -2 9 63 200 143 425 81 224 152 422 157 439 10 29 6 38 -69 145 -244 348
-2155 3143 -2163 3163 -19 51 -8 48 350 -86 714 -268 2620 -1047 3130 -1281
73 -33 77 -33 120 -21 129 39 471 97 735 126 158 17 808 17 965 0 203 -22 401
-53 575 -89 94 -20 181 -38 195 -40 16 -3 86 24 205 77 246 112 731 319 1140
488 1355 558 1594 655 1915 773 118 44 224 84 235 89 34 15 70 8 69 -15z
m-9204 -4665 c201 -89 407 -180 459 -203 l94 -42 143 -343 c78 -189 144 -345
146 -347 2 -3 65 79 139 182 74 102 143 196 154 209 l20 24 100 -44 c222 -97
435 -205 435 -220 0 -9 -102 -203 -226 -431 l-225 -416 7 -712 c7 -735 6 -764
-31 -755 -8 2 -170 154 -360 338 -191 184 -355 340 -366 348 -18 13 -19 30
-19 489 l0 475 -404 707 c-520 910 -496 867 -496 890 0 23 17 31 45 21 11 -5
184 -81 385 -170z m9206 105 c5 -12 -330 -636 -362 -675 -8 -9 -167 -87 -354
-174 l-340 -159 0 -148 c0 -82 3 -149 6 -149 3 0 154 61 336 135 260 107 333
133 344 124 12 -10 14 -63 12 -302 l-3 -291 -347 -151 -348 -150 0 -167 0
-167 188 85 c420 191 481 217 496 211 15 -6 16 -38 14 -284 l-3 -278 -185 -95
c-798 -410 -1107 -563 -1123 -557 -16 6 -17 81 -17 1238 l0 1231 98 45 c441
203 1542 691 1560 692 12 1 25 -6 28 -14z m-2548 -1624 c11 -7 15 -118 19
-580 l6 -571 361 -2 361 -3 0 -205 0 -205 -580 -7 c-319 -4 -589 -5 -601 -3
-19 4 -21 13 -27 132 -4 71 -7 419 -7 775 0 574 2 648 16 662 13 14 48 16 227
16 117 0 218 -4 225 -9z m-4278 -30 c356 -102 581 -395 581 -756 0 -137 -23
-234 -87 -364 -39 -78 -62 -110 -133 -181 -100 -101 -188 -156 -317 -199 -117
-39 -227 -55 -334 -47 -301 20 -549 182 -675 441 -64 131 -79 197 -79 345 0
141 14 209 70 330 105 226 307 384 569 446 89 20 308 12 405 -15z m1548 18
c170 -19 293 -71 386 -164 157 -157 193 -432 84 -637 -37 -70 -118 -156 -183
-194 -26 -15 -44 -32 -41 -39 2 -7 79 -121 171 -254 91 -133 165 -250 163
-259 -3 -15 -28 -18 -228 -23 -124 -4 -243 -4 -265 0 -39 6 -42 10 -190 234
l-150 227 -72 0 -73 0 0 -230 0 -230 -234 0 c-204 0 -235 2 -240 16 -3 9 -6
359 -6 778 0 579 3 765 12 774 16 16 726 17 866 1z m1478 -4 c450 -73 717
-389 691 -818 -8 -119 -26 -195 -71 -292 -94 -200 -266 -339 -506 -408 -132
-38 -240 -47 -587 -47 -308 0 -323 1 -333 19 -11 21 -15 1516 -4 1545 5 14 47
16 363 16 266 0 379 -4 447 -15z m-1998 -1808 c46 -20 102 -59 102 -72 0 -6
-9 -20 -19 -29 -18 -16 -21 -16 -65 15 -93 66 -214 47 -273 -43 -22 -32 -28
-55 -31 -107 -4 -83 23 -142 85 -185 70 -48 171 -37 241 27 18 17 27 19 40 11
33 -21 25 -47 -25 -81 -117 -77 -239 -68 -333 27 -144 143 -83 393 108 447 50
14 126 10 170 -10z m711 7 c140 -41 215 -201 164 -349 -32 -95 -143 -175 -243
-175 -136 0 -260 127 -260 265 0 148 115 271 256 274 17 1 54 -6 83 -15z m794
-5 c22 -6 55 -25 74 -43 31 -28 37 -40 41 -89 5 -68 -18 -114 -75 -143 -21
-10 -40 -20 -42 -21 -2 -2 28 -45 68 -96 39 -51 71 -99 71 -105 0 -7 -14 -12
-33 -12 -31 0 -40 9 -111 100 l-76 100 -70 0 -70 0 0 -101 0 -100 -32 3 -33 3
-3 245 c-1 134 0 250 3 257 6 16 232 18 288 2z m822 -19 l0 -25 -152 -3 -153
-3 0 -79 0 -79 131 -3 c108 -3 134 -6 142 -19 6 -9 7 -24 4 -33 -5 -14 -26
-16 -142 -16 l-135 0 0 -80 0 -79 153 -3 152 -3 0 -30 0 -30 -187 -3 -188 -2
0 260 0 260 188 -2 187 -3 0 -25z"/>
<path d="M9630 8099 c-701 -622 -1274 -1134 -1273 -1138 1 -4 70 -126 154
-270 123 -213 154 -260 164 -249 9 9 2129 2651 2228 2776 5 6 8 12 6 11 -2 0
-578 -509 -1279 -1130z"/>
<path d="M1484 9212 c9 -14 2200 -2749 2221 -2770 10 -11 42 38 168 255 146
251 155 269 139 284 -9 9 -550 488 -1202 1064 -652 577 -1218 1078 -1259 1114
-41 36 -71 60 -67 53z"/>
<path d="M4369 6809 c-11 -22 -6 -29 73 -104 306 -293 872 -663 1077 -706 109
-22 246 26 342 121 69 68 103 133 128 242 l19 83 -31 -40 c-61 -79 -148 -157
-203 -182 -44 -20 -71 -25 -137 -25 -107 -1 -152 17 -444 173 -460 245 -633
343 -790 446 -20 13 -23 12 -34 -8z"/>
<path d="M8010 6816 c-29 -28 -250 -155 -574 -331 -520 -281 -577 -304 -704
-286 -106 16 -166 56 -273 184 -27 32 -49 55 -49 52 0 -4 9 -43 21 -88 26
-103 64 -170 134 -236 101 -96 240 -138 351 -106 235 67 747 407 1068 707 75
70 78 75 65 96 -16 26 -20 27 -39 8z"/>
<path d="M5936 6121 l-88 -168 -82 -26 -81 -25 95 5 c52 3 98 8 102 12 9 8
149 363 145 367 -1 2 -42 -73 -91 -165z"/>
<path d="M6393 6268 c3 -7 35 -91 72 -185 l68 -173 37 0 c20 0 66 -2 101 -5
l64 -5 -80 25 c-43 14 -82 28 -86 33 -4 4 -44 78 -89 165 -45 86 -84 157 -87
157 -3 0 -3 -6 0 -12z"/>
<path d="M8618 5585 l-3 -299 -495 -213 c-272 -117 -499 -214 -504 -216 -5 -1
71 -38 168 -82 140 -62 174 -81 164 -91 -7 -6 -368 -217 -803 -469 -434 -252
-794 -462 -800 -467 -14 -13 -8 -11 1005 452 509 232 943 430 964 439 l39 17
-156 70 c-86 38 -157 72 -157 75 0 3 178 88 395 190 217 101 395 189 395 195
0 9 -193 662 -204 689 -2 6 -6 -125 -8 -290z"/>
<path d="M3877 2700 c-135 -34 -236 -149 -256 -292 -24 -175 52 -328 198 -400
38 -19 62 -23 146 -23 92 0 104 2 153 29 66 37 116 92 151 165 23 49 26 68 26
161 0 93 -3 112 -26 161 -37 78 -90 133 -163 169 -68 34 -164 46 -229 30z"/>
<path d="M5393 2703 l-53 -4 0 -150 0 -151 173 4 c158 3 175 5 208 26 98 60
87 213 -19 255 -40 16 -218 28 -309 20z"/>
<path d="M6883 2664 c4 -21 7 -184 7 -361 l0 -323 73 0 c259 1 397 83 443 263
19 73 14 183 -11 243 -59 144 -165 201 -394 211 l-124 6 6 -39z"/>
<path d="M5760 1239 c-173 -103 -108 -379 89 -379 104 0 180 70 189 174 2 30
-1 70 -8 91 -14 44 -62 100 -101 121 -42 21 -127 18 -169 -7z"/>
<path d="M6508 1254 c-5 -4 -8 -47 -8 -95 l0 -88 36 -7 c49 -9 148 2 189 22
67 31 69 111 5 149 -25 14 -58 20 -125 23 -49 2 -93 1 -97 -4z"/>
</g>
</svg>
