<?xml version="1.0" standalone="no"?>
<!DOCTYPE svg PUBLIC "-//W3C//DTD SVG 20010904//EN"
 "http://www.w3.org/TR/2001/REC-SVG-20010904/DTD/svg10.dtd">
<svg version="1.0" xmlns="http://www.w3.org/2000/svg"
 width="474.000000pt" height="479.000000pt" viewBox="0 0 474.000000 479.000000"
 preserveAspectRatio="xMidYMid meet">

<g transform="translate(0.000000,479.000000) scale(0.100000,-0.100000)"
fill="#000000" stroke="none">
<path d="M4305 3550 c-206 -79 -442 -175 -467 -190 -10 -5 -23 -10 -28 -10 -6
0 -30 -9 -52 -20 -23 -11 -45 -20 -50 -20 -5 0 -27 -9 -51 -19 -23 -11 -82
-36 -132 -57 -132 -53 -407 -170 -508 -216 l-88 -40 -97 21 c-120 26 -353 51
-466 51 -111 0 -374 -27 -451 -47 -112 -28 -109 -29 -285 47 -91 40 -241 103
-335 141 -293 120 -637 260 -700 284 -350 135 -385 146 -385 129 0 -3 64 -99
142 -212 78 -114 220 -322 317 -462 96 -140 243 -354 326 -475 83 -121 166
-242 184 -268 l33 -49 -30 -81 c-17 -45 -37 -102 -45 -127 -9 -25 -27 -76 -41
-114 -15 -38 -23 -73 -19 -77 5 -4 69 -28 143 -54 128 -44 160 -58 149 -70 -3
-2 -40 -10 -82 -17 -42 -6 -77 -15 -77 -20 0 -7 542 -278 555 -278 1 0 136
-65 300 -145 l297 -145 111 54 c62 30 207 100 322 156 489 236 725 354 725
360 0 4 -36 12 -81 18 -137 20 -133 26 54 87 78 26 146 50 150 55 5 4 -17 79
-48 166 -89 250 -88 228 -25 321 129 188 399 584 445 650 85 124 322 473 397
583 39 58 77 113 85 122 14 16 11 38 -5 38 -4 0 -88 -32 -187 -70z m-3834
-172 c58 -51 173 -151 254 -223 82 -71 177 -155 210 -185 193 -173 250 -224
348 -309 59 -51 107 -95 107 -98 0 -2 -19 -37 -41 -76 -23 -40 -52 -91 -66
-115 -20 -36 -27 -41 -39 -31 -14 11 -260 313 -374 459 -25 31 -97 122 -160
201 -64 79 -127 158 -140 175 -14 17 -69 85 -122 151 -91 111 -111 143 -90
143 4 0 55 -42 113 -92z m3899 83 c0 -6 -24 -38 -53 -73 -29 -35 -71 -86 -93
-114 -52 -69 -241 -304 -334 -418 -42 -50 -154 -189 -249 -309 -142 -178 -176
-216 -187 -205 -17 18 -124 204 -124 217 0 11 153 152 351 322 74 64 172 151
219 194 47 43 128 115 180 161 52 45 133 116 180 157 80 71 110 89 110 68z
m-2730 -1013 c19 -12 118 -66 220 -120 205 -110 249 -123 314 -93 21 10 47 31
59 47 28 38 37 35 27 -7 -11 -49 -34 -81 -80 -111 -70 -46 -110 -44 -225 15
-131 67 -385 254 -385 283 0 15 35 8 70 -14z m1520 12 c0 -15 -137 -126 -240
-195 -118 -79 -210 -126 -259 -132 -76 -10 -163 51 -192 136 -15 44 -5 49 25
13 32 -37 83 -62 129 -62 43 0 325 139 487 239 20 13 50 13 50 1z m328 -522
c43 -140 48 -168 31 -179 -8 -5 -85 -41 -171 -80 -88 -40 -155 -76 -152 -81 4
-6 31 -21 60 -34 30 -13 54 -26 54 -29 0 -4 -167 -85 -176 -85 -2 0 -39 -16
-81 -36 -254 -119 -444 -201 -449 -193 -6 10 -7 10 298 187 131 75 238 140
238 143 0 3 -28 19 -61 35 -34 16 -62 33 -61 39 0 9 154 80 332 153 96 40 90
30 90 153 0 60 4 109 8 109 4 0 22 -46 40 -102z"/>
<path d="M3093 970 c-135 -28 -228 -141 -254 -309 -19 -128 10 -243 73 -281
68 -41 190 -18 301 58 45 32 66 60 82 111 6 21 2 19 -47 -17 -82 -60 -131 -82
-186 -82 -67 0 -97 25 -118 97 -21 73 -13 160 22 231 51 104 164 148 278 107
22 -8 43 -12 48 -9 4 3 8 23 8 44 0 37 -2 38 -37 44 -85 12 -130 14 -170 6z"/>
<path d="M1270 961 c0 -5 6 -11 14 -14 18 -7 59 -66 130 -190 l56 -98 0 -109
c0 -62 -4 -111 -10 -115 -20 -12 -9 -23 60 -53 39 -17 70 -29 70 -28 0 2 -7
20 -15 39 -10 24 -15 69 -15 131 l0 94 69 104 c38 56 86 133 106 171 l37 67
-73 0 c-57 0 -70 -3 -61 -12 24 -24 12 -64 -43 -146 -31 -45 -59 -82 -64 -82
-4 0 -23 28 -41 63 -43 80 -100 170 -114 179 -16 11 -106 10 -106 -1z"/>
<path d="M1837 928 c14 -27 15 -69 9 -332 -6 -238 -10 -306 -22 -323 -14 -22
-12 -24 53 -54 229 -105 287 -109 358 -27 48 56 74 132 87 252 19 177 -29 353
-120 444 -56 56 -115 72 -263 72 l-117 0 15 -32z m259 -74 c45 -21 79 -67 106
-140 18 -49 22 -82 22 -189 1 -121 -1 -134 -26 -187 -46 -99 -116 -120 -225
-67 l-43 21 0 152 c0 84 3 214 7 289 5 112 9 137 22 141 27 8 101 -3 137 -20z"/>
<path d="M2420 951 c0 -6 4 -12 9 -15 19 -12 21 -84 10 -425 -7 -240 -15 -367
-24 -393 -7 -21 -10 -38 -7 -38 13 0 308 133 319 144 6 6 20 44 32 85 l21 75
-48 -46 c-52 -51 -109 -83 -171 -97 l-41 -9 0 82 c2 256 19 574 34 609 l15 37
-75 0 c-40 0 -74 -4 -74 -9z"/>
</g>
</svg>
